<?xml version="1.0" encoding="UTF-8" standalone="no"?>
<svg
   width="864pt"
   height="648pt"
   viewBox="0 0 864 648"
   version="1.1"
   id="svg114"
   sodipodi:docname="pt4CPUbroken.svg"
   inkscape:version="1.4.2 (f4327f4, 2025-05-13)"
   xmlns:inkscape="http://www.inkscape.org/namespaces/inkscape"
   xmlns:sodipodi="http://sodipodi.sourceforge.net/DTD/sodipodi-0.dtd"
   xmlns:xlink="http://www.w3.org/1999/xlink"
   xmlns="http://www.w3.org/2000/svg"
   xmlns:svg="http://www.w3.org/2000/svg"
   xmlns:rdf="http://www.w3.org/1999/02/22-rdf-syntax-ns#"
   xmlns:cc="http://creativecommons.org/ns#"
   xmlns:dc="http://purl.org/dc/elements/1.1/">
  <sodipodi:namedview
     id="namedview114"
     pagecolor="#ffffff"
     bordercolor="#000000"
     borderopacity="0.25"
     inkscape:showpageshadow="2"
     inkscape:pageopacity="0.0"
     inkscape:pagecheckerboard="0"
     inkscape:deskcolor="#d1d1d1"
     inkscape:document-units="pt"
     showgrid="false"
     inkscape:zoom="1.1228594"
     inkscape:cx="404.77019"
     inkscape:cy="491.60207"
     inkscape:window-width="2880"
     inkscape:window-height="1676"
     inkscape:window-x="-12"
     inkscape:window-y="-12"
     inkscape:window-maximized="1"
     inkscape:current-layer="axes_2" />
  <metadata
     id="metadata1">
    <rdf:RDF>
      <cc:Work>
        <dc:type
           rdf:resource="http://purl.org/dc/dcmitype/StillImage" />
        <dc:date>2025-12-02T22:20:50.794329</dc:date>
        <dc:format>image/svg+xml</dc:format>
        <dc:creator>
          <cc:Agent>
            <dc:title>Matplotlib v3.9.2, https://matplotlib.org/</dc:title>
          </cc:Agent>
        </dc:creator>
      </cc:Work>
    </rdf:RDF>
  </metadata>
  <defs
     id="defs1">
    <style
       type="text/css"
       id="style1">*{stroke-linejoin: round; stroke-linecap: butt}</style>
  </defs>
  <g
     id="figure_1">
    <g
       id="patch_1">
      <path
         d="M 0 648  L 864 648  L 864 0  L 0 0  L 0 648  z "
         style="fill: none"
         id="path1" />
    </g>
    <g
       id="patch_2">
      <path
         d="M 104.85875,380.4306 H 842.4 V 29.198437 H 104.85875 Z"
         style="fill:none"
         id="path2" />
    </g>
    <g
       id="patch_3">
      <path
         d="M 138.38335,8810.0026 H 329.95251 V 99.444871 H 138.38335 Z"
         clip-path="url(#pe450923bdd)"
         style="fill:#1f77b4"
         id="path3" />
    </g>
    <g
       id="patch_4">
      <path
         d="m 377.8448,8810.0026 h 191.56915 v -91.3204 H 377.8448 Z"
         clip-path="url(#pe450923bdd)"
         style="fill:#ff7f0e"
         id="path4" />
    </g>
    <g
       id="patch_5">
      <path
         d="M 617.30624,8810.0026 H 808.8754 v -98.345 H 617.30624 Z"
         clip-path="url(#pe450923bdd)"
         style="fill:#2ca02c"
         id="path5" />
    </g>
    <g
       id="matplotlib.axis_1">
      <g
         id="xtick_1" />
      <g
         id="xtick_2" />
      <g
         id="xtick_3" />
    </g>
    <g
       id="matplotlib.axis_2">
      <g
         id="ytick_1">
        <g
           id="line2d_1">
          <defs
             id="defs5">
            <path
               id="mcc67565311"
               d="M 0,0 H -8"
               style="stroke:#000000;stroke-width:2" />
          </defs>
          <g
             id="g5">
            <use
               xlink:href="#mcc67565311"
               x="104.85875"
               y="380.4306"
               style="stroke:#000000;stroke-width:2"
               id="use5" />
          </g>
        </g>
        <g
           id="text_1">
          <!-- 12.0 -->
          <g
             transform="matrix(0.2,0,0,-0.2,48.8275,388.02904)"
             id="g9">
            <defs
               id="defs6">
              <path
                 id="DejaVuSans-31"
                 d="M 794,531 H 1825 V 4091 L 703,3866 v 575 l 1116,225 h 631 V 531 H 3481 V 0 H 794 Z"
                 transform="scale(0.015625)" />
              <path
                 id="DejaVuSans-32"
                 d="M 1228,531 H 3431 V 0 H 469 v 531 q 359,372 979,998 621,627 780,809 303,340 423,576 121,236 121,464 0,372 -261,606 -261,235 -680,235 -297,0 -627,-103 -329,-103 -704,-313 v 638 q 381,153 712,231 332,78 607,78 725,0 1156,-363 431,-362 431,-968 0,-288 -108,-546 -107,-257 -392,-607 -78,-91 -497,-524 Q 1991,1309 1228,531 Z"
                 transform="scale(0.015625)" />
              <path
                 id="DejaVuSans-2e"
                 d="m 684,794 h 660 V 0 H 684 Z"
                 transform="scale(0.015625)" />
              <path
                 id="DejaVuSans-30"
                 d="m 2034,4250 q -487,0 -733,-480 -245,-479 -245,-1442 0,-959 245,-1439 246,-480 733,-480 491,0 736,480 246,480 246,1439 0,963 -246,1442 -245,480 -736,480 z m 0,500 q 785,0 1199,-621 414,-620 414,-1801 0,-1178 -414,-1799 -414,-620 -1199,-620 -784,0 -1198,620 -414,621 -414,1799 0,1181 414,1801 414,621 1198,621 z"
                 transform="scale(0.015625)" />
            </defs>
            <use
               xlink:href="#DejaVuSans-31"
               id="use6" />
            <use
               xlink:href="#DejaVuSans-32"
               x="63.623047"
               id="use7" />
            <use
               xlink:href="#DejaVuSans-2e"
               x="127.24609"
               id="use8" />
            <use
               xlink:href="#DejaVuSans-30"
               x="159.0332"
               id="use9" />
          </g>
        </g>
      </g>
      <g
         id="ytick_2">
        <g
           id="line2d_2">
          <g
             id="g10">
            <use
               xlink:href="#mcc67565311"
               x="104.85875"
               y="310.18417"
               style="stroke:#000000;stroke-width:2"
               id="use10" />
          </g>
        </g>
        <g
           id="text_2">
          <!-- 12.1 -->
          <g
             transform="matrix(0.2,0,0,-0.2,48.8275,317.78261)"
             id="g14">
            <use
               xlink:href="#DejaVuSans-31"
               id="use11" />
            <use
               xlink:href="#DejaVuSans-32"
               x="63.623047"
               id="use12" />
            <use
               xlink:href="#DejaVuSans-2e"
               x="127.24609"
               id="use13" />
            <use
               xlink:href="#DejaVuSans-31"
               x="159.0332"
               id="use14" />
          </g>
        </g>
      </g>
      <g
         id="ytick_3">
        <g
           id="line2d_3">
          <g
             id="g15">
            <use
               xlink:href="#mcc67565311"
               x="104.85875"
               y="239.93774"
               style="stroke:#000000;stroke-width:2"
               id="use15" />
          </g>
        </g>
        <g
           id="text_3">
          <!-- 12.2 -->
          <g
             transform="matrix(0.2,0,0,-0.2,48.8275,247.53617)"
             id="g19">
            <use
               xlink:href="#DejaVuSans-31"
               id="use16" />
            <use
               xlink:href="#DejaVuSans-32"
               x="63.623047"
               id="use17" />
            <use
               xlink:href="#DejaVuSans-2e"
               x="127.24609"
               id="use18" />
            <use
               xlink:href="#DejaVuSans-32"
               x="159.0332"
               id="use19" />
          </g>
        </g>
      </g>
      <g
         id="ytick_4">
        <g
           id="line2d_4">
          <g
             id="g20">
            <use
               xlink:href="#mcc67565311"
               x="104.85875"
               y="169.6913"
               style="stroke:#000000;stroke-width:2"
               id="use20" />
          </g>
        </g>
        <g
           id="text_4">
          <!-- 12.3 -->
          <g
             transform="matrix(0.2,0,0,-0.2,48.8275,177.28974)"
             id="g24">
            <defs
               id="defs20">
              <path
                 id="DejaVuSans-33"
                 d="m 2597,2516 q 453,-97 707,-404 255,-306 255,-756 0,-690 -475,-1069 -475,-378 -1350,-378 -293,0 -604,58 -311,58 -642,174 v 609 q 262,-153 574,-231 313,-78 654,-78 593,0 904,234 311,234 311,681 0,413 -289,645 -289,233 -804,233 h -544 v 519 h 569 q 465,0 712,186 247,186 247,536 0,359 -255,551 -254,193 -729,193 -260,0 -557,-57 -297,-56 -653,-174 v 562 q 360,100 674,150 314,50 592,50 719,0 1137,-327 419,-326 419,-882 0,-388 -222,-655 -222,-267 -631,-370 z"
                 transform="scale(0.015625)" />
            </defs>
            <use
               xlink:href="#DejaVuSans-31"
               id="use21" />
            <use
               xlink:href="#DejaVuSans-32"
               x="63.623047"
               id="use22" />
            <use
               xlink:href="#DejaVuSans-2e"
               x="127.24609"
               id="use23" />
            <use
               xlink:href="#DejaVuSans-33"
               x="159.0332"
               id="use24" />
          </g>
        </g>
      </g>
      <g
         id="ytick_5">
        <g
           id="line2d_5">
          <g
             id="g25">
            <use
               xlink:href="#mcc67565311"
               x="104.85875"
               y="99.44487"
               style="stroke:#000000;stroke-width:2"
               id="use25" />
          </g>
        </g>
        <g
           id="text_5">
          <!-- 12.4 -->
          <g
             transform="matrix(0.2,0,0,-0.2,48.8275,107.04331)"
             id="g29">
            <defs
               id="defs25">
              <path
                 id="DejaVuSans-34"
                 d="M 2419,4116 825,1625 h 1594 z m -166,550 h 794 V 1625 h 666 V 1100 H 3047 V 0 H 2419 V 1100 H 313 v 609 z"
                 transform="scale(0.015625)" />
            </defs>
            <use
               xlink:href="#DejaVuSans-31"
               id="use26" />
            <use
               xlink:href="#DejaVuSans-32"
               x="63.623047"
               id="use27" />
            <use
               xlink:href="#DejaVuSans-2e"
               x="127.24609"
               id="use28" />
            <use
               xlink:href="#DejaVuSans-34"
               x="159.0332"
               id="use29" />
          </g>
        </g>
      </g>
      <g
         id="ytick_6">
        <g
           id="line2d_6">
          <g
             id="g30">
            <use
               xlink:href="#mcc67565311"
               x="104.85875"
               y="29.198437"
               style="stroke:#000000;stroke-width:2"
               id="use30" />
          </g>
        </g>
        <g
           id="text_6">
          <!-- 12.5 -->
          <g
             transform="matrix(0.2,0,0,-0.2,48.8275,36.796875)"
             id="g34">
            <defs
               id="defs30">
              <path
                 id="DejaVuSans-35"
                 d="M 691,4666 H 3169 V 4134 H 1269 V 2991 q 137,47 274,70 138,23 276,23 781,0 1237,-428 457,-428 457,-1159 Q 3513,744 3044,326 2575,-91 1722,-91 1428,-91 1123,-41 819,9 494,109 v 635 q 281,-153 581,-228 300,-75 634,-75 541,0 856,284 316,284 316,772 0,487 -316,771 -315,285 -856,285 -253,0 -505,-56 -251,-56 -513,-175 z"
                 transform="scale(0.015625)" />
            </defs>
            <use
               xlink:href="#DejaVuSans-31"
               id="use31" />
            <use
               xlink:href="#DejaVuSans-32"
               x="63.623047"
               id="use32" />
            <use
               xlink:href="#DejaVuSans-2e"
               x="127.24609"
               id="use33" />
            <use
               xlink:href="#DejaVuSans-35"
               x="159.0332"
               id="use34" />
          </g>
        </g>
      </g>
      <g
         id="text_7">
        <!-- CPU time (s) -->
        <g
           transform="matrix(0,-0.24,-0.24,0,39.83625,279.56515)"
           id="g46">
          <defs
             id="defs34">
            <path
               id="DejaVuSans-43"
               d="m 4122,4306 v -665 q -319,297 -680,443 -361,147 -767,147 -800,0 -1225,-489 -425,-489 -425,-1414 0,-922 425,-1411 425,-489 1225,-489 406,0 767,147 361,147 680,444 V 359 Q 3791,134 3420,21 3050,-91 2638,-91 1578,-91 968,557 359,1206 359,2328 q 0,1125 609,1773 610,649 1670,649 418,0 788,-111 371,-111 696,-333 z"
               transform="scale(0.015625)" />
            <path
               id="DejaVuSans-50"
               d="M 1259,4147 V 2394 h 794 q 441,0 681,228 241,228 241,650 0,419 -241,647 -240,228 -681,228 z m -631,519 h 1425 q 785,0 1186,-355 402,-355 402,-1039 0,-691 -402,-1044 -401,-353 -1186,-353 H 1259 V 0 H 628 Z"
               transform="scale(0.015625)" />
            <path
               id="DejaVuSans-55"
               d="m 556,4666 h 635 V 1831 q 0,-750 271,-1080 272,-329 882,-329 606,0 878,329 272,330 272,1080 v 2835 h 634 V 1753 Q 4128,841 3676,375 3225,-91 2344,-91 1459,-91 1007,375 556,841 556,1753 Z"
               transform="scale(0.015625)" />
            <path
               id="DejaVuSans-20"
               transform="scale(0.015625)"
               d="" />
            <path
               id="DejaVuSans-74"
               d="M 1172,4494 V 3500 H 2356 V 3053 H 1172 V 1153 q 0,-428 117,-550 117,-122 477,-122 h 590 V 0 H 1766 Q 1100,0 847,248 594,497 594,1153 V 3053 H 172 v 447 h 422 v 994 z"
               transform="scale(0.015625)" />
            <path
               id="DejaVuSans-69"
               d="m 603,3500 h 575 V 0 H 603 Z m 0,1363 h 575 V 4134 H 603 Z"
               transform="scale(0.015625)" />
            <path
               id="DejaVuSans-6d"
               d="m 3328,2828 q 216,388 516,572 300,184 706,184 547,0 844,-383 297,-382 297,-1088 V 0 h -578 v 2094 q 0,503 -179,746 -178,244 -543,244 -447,0 -707,-297 -259,-296 -259,-809 V 0 h -578 v 2094 q 0,506 -178,748 -178,242 -550,242 -441,0 -701,-298 -259,-298 -259,-808 V 0 H 581 v 3500 h 578 v -544 q 197,322 472,475 275,153 653,153 382,0 649,-194 267,-193 395,-562 z"
               transform="scale(0.015625)" />
            <path
               id="DejaVuSans-65"
               d="M 3597,1894 V 1613 H 953 q 38,-594 358,-905 320,-311 892,-311 331,0 642,81 311,81 618,244 V 178 Q 3153,47 2828,-22 2503,-91 2169,-91 1331,-91 842,396 353,884 353,1716 q 0,859 464,1363 464,505 1252,505 706,0 1117,-455 411,-454 411,-1235 z m -575,169 q -6,471 -264,752 -258,282 -683,282 -481,0 -770,-272 -289,-272 -333,-766 z"
               transform="scale(0.015625)" />
            <path
               id="DejaVuSans-28"
               d="m 1984,4856 q -418,-718 -622,-1422 -203,-703 -203,-1425 0,-721 205,-1429 205,-708 620,-1424 h -500 q -468,735 -701,1444 -233,709 -233,1409 0,697 231,1403 232,707 703,1444 z"
               transform="scale(0.015625)" />
            <path
               id="DejaVuSans-73"
               d="m 2834,3397 v -544 q -243,125 -506,187 -262,63 -544,63 -428,0 -642,-131 -214,-131 -214,-394 0,-200 153,-314 153,-114 616,-217 l 197,-44 q 612,-131 870,-370 258,-239 258,-667 0,-488 -386,-773 Q 2250,-91 1575,-91 1294,-91 989,-36 684,19 347,128 v 594 q 319,-166 628,-249 309,-82 613,-82 406,0 624,139 219,139 219,392 0,234 -158,359 -157,125 -692,241 l -200,47 q -534,112 -772,345 -237,233 -237,639 0,494 350,762 350,269 994,269 318,0 599,-47 282,-46 519,-140 z"
               transform="scale(0.015625)" />
            <path
               id="DejaVuSans-29"
               d="m 513,4856 h 500 q 468,-737 701,-1444 233,-706 233,-1403 0,-700 -233,-1409 -233,-709 -701,-1444 H 513 q 415,716 620,1424 205,708 205,1429 0,722 -205,1425 -205,704 -620,1422 z"
               transform="scale(0.015625)" />
          </defs>
          <use
             xlink:href="#DejaVuSans-43"
             id="use35" />
          <use
             xlink:href="#DejaVuSans-50"
             x="69.824219"
             id="use36" />
          <use
             xlink:href="#DejaVuSans-55"
             x="130.12695"
             id="use37" />
          <use
             xlink:href="#DejaVuSans-20"
             x="203.32031"
             id="use38" />
          <use
             xlink:href="#DejaVuSans-74"
             x="235.10742"
             id="use39" />
          <use
             xlink:href="#DejaVuSans-69"
             x="274.31641"
             id="use40" />
          <use
             xlink:href="#DejaVuSans-6d"
             x="302.09961"
             id="use41" />
          <use
             xlink:href="#DejaVuSans-65"
             x="399.51172"
             id="use42" />
          <use
             xlink:href="#DejaVuSans-20"
             x="461.03516"
             id="use43" />
          <use
             xlink:href="#DejaVuSans-28"
             x="492.82227"
             id="use44" />
          <use
             xlink:href="#DejaVuSans-73"
             x="531.83594"
             id="use45" />
          <use
             xlink:href="#DejaVuSans-29"
             x="583.93555"
             id="use46" />
        </g>
      </g>
    </g>
    <g
       id="line2d_7">
      <path
         d="M 93.795631,385.69909 115.92187,375.16212"
         style="fill:none;stroke:#000000;stroke-width:3.5;stroke-linecap:square"
         id="path46" />
    </g>
    <g
       id="patch_6">
      <path
         d="M 104.85875,380.4306 V 29.198437"
         style="fill:none;stroke:#000000;stroke-width:2;stroke-linecap:square;stroke-linejoin:miter"
         id="path47" />
    </g>
    <g
       id="text_8"
       transform="matrix(1.6168421,0,0,1.6168421,-144.7562,-58.303046)">
      <!-- 12.4 -->
      <g
         transform="matrix(0.2,0,0,-0.2,211.9023,95.285496)"
         id="g50">
        <use
           xlink:href="#DejaVuSans-31"
           id="use47" />
        <use
           xlink:href="#DejaVuSans-32"
           x="63.623047"
           id="use48" />
        <use
           xlink:href="#DejaVuSans-2e"
           x="127.24609"
           id="use49" />
        <use
           xlink:href="#DejaVuSans-34"
           x="159.0332"
           id="use50" />
      </g>
    </g>
    <g
       id="axes_2">
      <g
         id="patch_7">
        <path
           d="M 104.85875 591.6725  L 842.4 591.6725  L 842.4 416.056417  L 104.85875 416.056417  L 104.85875 591.6725  z "
           style="fill: none"
           id="path50" />
      </g>
      <g
         id="patch_8">
        <path
           d="M 138.383352 942.904667  L 329.952508 942.904667  L 329.952508 -42609.884  L 138.383352 -42609.884  z "
           clip-path="url(#pbb3622efc0)"
           style="fill: #1f77b4"
           id="path51" />
      </g>
      <g
         id="patch_9">
        <path
           d="M 377.844797 942.904667  L 569.413953 942.904667  L 569.413953 486.30285  L 377.844797 486.30285  z "
           clip-path="url(#pbb3622efc0)"
           style="fill: #ff7f0e"
           id="path52" />
      </g>
      <g
         id="patch_10">
        <path
           d="M 617.306242 942.904667  L 808.875398 942.904667  L 808.875398 451.179633  L 617.306242 451.179633  z "
           clip-path="url(#pbb3622efc0)"
           style="fill: #2ca02c"
           id="path53" />
      </g>
      <g
         id="matplotlib.axis_3">
        <g
           id="xtick_4">
          <g
             id="line2d_8">
            <defs
               id="defs53">
              <path
                 id="m71d3bd2d4c"
                 d="M 0 0  L 0 8  "
                 style="stroke: #000000; stroke-width: 2" />
            </defs>
            <g
               id="g53">
              <use
                 xlink:href="#m71d3bd2d4c"
                 x="234.16793"
                 y="591.6725"
                 style="stroke: #000000; stroke-width: 2"
                 id="use53" />
            </g>
          </g>
          <g
             id="text_9">
            <!-- Full model -->
            <g
               transform="translate(172.47293 621.40875) scale(0.24 -0.24)"
               id="g63">
              <defs
                 id="defs54">
                <path
                   id="DejaVuSans-46"
                   d="M 628 4666  L 3309 4666  L 3309 4134  L 1259 4134  L 1259 2759  L 3109 2759  L 3109 2228  L 1259 2228  L 1259 0  L 628 0  L 628 4666  z "
                   transform="scale(0.015625)" />
                <path
                   id="DejaVuSans-75"
                   d="M 544 1381  L 544 3500  L 1119 3500  L 1119 1403  Q 1119 906 1312 657  Q 1506 409 1894 409  Q 2359 409 2629 706  Q 2900 1003 2900 1516  L 2900 3500  L 3475 3500  L 3475 0  L 2900 0  L 2900 538  Q 2691 219 2414 64  Q 2138 -91 1772 -91  Q 1169 -91 856 284  Q 544 659 544 1381  z M 1991 3584  L 1991 3584  z "
                   transform="scale(0.015625)" />
                <path
                   id="DejaVuSans-6c"
                   d="M 603 4863  L 1178 4863  L 1178 0  L 603 0  L 603 4863  z "
                   transform="scale(0.015625)" />
                <path
                   id="DejaVuSans-6f"
                   d="M 1959 3097  Q 1497 3097 1228 2736  Q 959 2375 959 1747  Q 959 1119 1226 758  Q 1494 397 1959 397  Q 2419 397 2687 759  Q 2956 1122 2956 1747  Q 2956 2369 2687 2733  Q 2419 3097 1959 3097  z M 1959 3584  Q 2709 3584 3137 3096  Q 3566 2609 3566 1747  Q 3566 888 3137 398  Q 2709 -91 1959 -91  Q 1206 -91 779 398  Q 353 888 353 1747  Q 353 2609 779 3096  Q 1206 3584 1959 3584  z "
                   transform="scale(0.015625)" />
                <path
                   id="DejaVuSans-64"
                   d="M 2906 2969  L 2906 4863  L 3481 4863  L 3481 0  L 2906 0  L 2906 525  Q 2725 213 2448 61  Q 2172 -91 1784 -91  Q 1150 -91 751 415  Q 353 922 353 1747  Q 353 2572 751 3078  Q 1150 3584 1784 3584  Q 2172 3584 2448 3432  Q 2725 3281 2906 2969  z M 947 1747  Q 947 1113 1208 752  Q 1469 391 1925 391  Q 2381 391 2643 752  Q 2906 1113 2906 1747  Q 2906 2381 2643 2742  Q 2381 3103 1925 3103  Q 1469 3103 1208 2742  Q 947 2381 947 1747  z "
                   transform="scale(0.015625)" />
              </defs>
              <use
                 xlink:href="#DejaVuSans-46"
                 id="use54" />
              <use
                 xlink:href="#DejaVuSans-75"
                 x="52.019531"
                 id="use55" />
              <use
                 xlink:href="#DejaVuSans-6c"
                 x="115.398438"
                 id="use56" />
              <use
                 xlink:href="#DejaVuSans-6c"
                 x="143.181641"
                 id="use57" />
              <use
                 xlink:href="#DejaVuSans-20"
                 x="170.964844"
                 id="use58" />
              <use
                 xlink:href="#DejaVuSans-6d"
                 x="202.751953"
                 id="use59" />
              <use
                 xlink:href="#DejaVuSans-6f"
                 x="300.164062"
                 id="use60" />
              <use
                 xlink:href="#DejaVuSans-64"
                 x="361.345703"
                 id="use61" />
              <use
                 xlink:href="#DejaVuSans-65"
                 x="424.822266"
                 id="use62" />
              <use
                 xlink:href="#DejaVuSans-6c"
                 x="486.345703"
                 id="use63" />
            </g>
          </g>
        </g>
        <g
           id="xtick_5">
          <g
             id="line2d_9">
            <g
               id="g64">
              <use
                 xlink:href="#m71d3bd2d4c"
                 x="473.629375"
                 y="591.6725"
                 style="stroke: #000000; stroke-width: 2"
                 id="use64" />
            </g>
          </g>
          <g
             id="text_10">
            <!-- Guyan-Irons -->
            <g
               transform="translate(400.93375 621.40875) scale(0.24 -0.24)"
               id="g75">
              <defs
                 id="defs64">
                <path
                   id="DejaVuSans-47"
                   d="M 3809 666  L 3809 1919  L 2778 1919  L 2778 2438  L 4434 2438  L 4434 434  Q 4069 175 3628 42  Q 3188 -91 2688 -91  Q 1594 -91 976 548  Q 359 1188 359 2328  Q 359 3472 976 4111  Q 1594 4750 2688 4750  Q 3144 4750 3555 4637  Q 3966 4525 4313 4306  L 4313 3634  Q 3963 3931 3569 4081  Q 3175 4231 2741 4231  Q 1884 4231 1454 3753  Q 1025 3275 1025 2328  Q 1025 1384 1454 906  Q 1884 428 2741 428  Q 3075 428 3337 486  Q 3600 544 3809 666  z "
                   transform="scale(0.015625)" />
                <path
                   id="DejaVuSans-79"
                   d="M 2059 -325  Q 1816 -950 1584 -1140  Q 1353 -1331 966 -1331  L 506 -1331  L 506 -850  L 844 -850  Q 1081 -850 1212 -737  Q 1344 -625 1503 -206  L 1606 56  L 191 3500  L 800 3500  L 1894 763  L 2988 3500  L 3597 3500  L 2059 -325  z "
                   transform="scale(0.015625)" />
                <path
                   id="DejaVuSans-61"
                   d="M 2194 1759  Q 1497 1759 1228 1600  Q 959 1441 959 1056  Q 959 750 1161 570  Q 1363 391 1709 391  Q 2188 391 2477 730  Q 2766 1069 2766 1631  L 2766 1759  L 2194 1759  z M 3341 1997  L 3341 0  L 2766 0  L 2766 531  Q 2569 213 2275 61  Q 1981 -91 1556 -91  Q 1019 -91 701 211  Q 384 513 384 1019  Q 384 1609 779 1909  Q 1175 2209 1959 2209  L 2766 2209  L 2766 2266  Q 2766 2663 2505 2880  Q 2244 3097 1772 3097  Q 1472 3097 1187 3025  Q 903 2953 641 2809  L 641 3341  Q 956 3463 1253 3523  Q 1550 3584 1831 3584  Q 2591 3584 2966 3190  Q 3341 2797 3341 1997  z "
                   transform="scale(0.015625)" />
                <path
                   id="DejaVuSans-6e"
                   d="M 3513 2113  L 3513 0  L 2938 0  L 2938 2094  Q 2938 2591 2744 2837  Q 2550 3084 2163 3084  Q 1697 3084 1428 2787  Q 1159 2491 1159 1978  L 1159 0  L 581 0  L 581 3500  L 1159 3500  L 1159 2956  Q 1366 3272 1645 3428  Q 1925 3584 2291 3584  Q 2894 3584 3203 3211  Q 3513 2838 3513 2113  z "
                   transform="scale(0.015625)" />
                <path
                   id="DejaVuSans-2d"
                   d="M 313 2009  L 1997 2009  L 1997 1497  L 313 1497  L 313 2009  z "
                   transform="scale(0.015625)" />
                <path
                   id="DejaVuSans-49"
                   d="M 628 4666  L 1259 4666  L 1259 0  L 628 0  L 628 4666  z "
                   transform="scale(0.015625)" />
                <path
                   id="DejaVuSans-72"
                   d="M 2631 2963  Q 2534 3019 2420 3045  Q 2306 3072 2169 3072  Q 1681 3072 1420 2755  Q 1159 2438 1159 1844  L 1159 0  L 581 0  L 581 3500  L 1159 3500  L 1159 2956  Q 1341 3275 1631 3429  Q 1922 3584 2338 3584  Q 2397 3584 2469 3576  Q 2541 3569 2628 3553  L 2631 2963  z "
                   transform="scale(0.015625)" />
              </defs>
              <use
                 xlink:href="#DejaVuSans-47"
                 id="use65" />
              <use
                 xlink:href="#DejaVuSans-75"
                 x="77.490234"
                 id="use66" />
              <use
                 xlink:href="#DejaVuSans-79"
                 x="140.869141"
                 id="use67" />
              <use
                 xlink:href="#DejaVuSans-61"
                 x="200.048828"
                 id="use68" />
              <use
                 xlink:href="#DejaVuSans-6e"
                 x="261.328125"
                 id="use69" />
              <use
                 xlink:href="#DejaVuSans-2d"
                 x="324.707031"
                 id="use70" />
              <use
                 xlink:href="#DejaVuSans-49"
                 x="360.791016"
                 id="use71" />
              <use
                 xlink:href="#DejaVuSans-72"
                 x="390.283203"
                 id="use72" />
              <use
                 xlink:href="#DejaVuSans-6f"
                 x="429.146484"
                 id="use73" />
              <use
                 xlink:href="#DejaVuSans-6e"
                 x="490.328125"
                 id="use74" />
              <use
                 xlink:href="#DejaVuSans-73"
                 x="553.707031"
                 id="use75" />
            </g>
          </g>
        </g>
        <g
           id="xtick_6">
          <g
             id="line2d_10">
            <g
               id="g76">
              <use
                 xlink:href="#m71d3bd2d4c"
                 x="713.09082"
                 y="591.6725"
                 style="stroke: #000000; stroke-width: 2"
                 id="use76" />
            </g>
          </g>
          <g
             id="text_11">
            <!-- Craig-Bampton -->
            <g
               transform="translate(623.032695 621.40875) scale(0.24 -0.24)"
               id="g89">
              <defs
                 id="defs76">
                <path
                   id="DejaVuSans-67"
                   d="M 2906 1791  Q 2906 2416 2648 2759  Q 2391 3103 1925 3103  Q 1463 3103 1205 2759  Q 947 2416 947 1791  Q 947 1169 1205 825  Q 1463 481 1925 481  Q 2391 481 2648 825  Q 2906 1169 2906 1791  z M 3481 434  Q 3481 -459 3084 -895  Q 2688 -1331 1869 -1331  Q 1566 -1331 1297 -1286  Q 1028 -1241 775 -1147  L 775 -588  Q 1028 -725 1275 -790  Q 1522 -856 1778 -856  Q 2344 -856 2625 -561  Q 2906 -266 2906 331  L 2906 616  Q 2728 306 2450 153  Q 2172 0 1784 0  Q 1141 0 747 490  Q 353 981 353 1791  Q 353 2603 747 3093  Q 1141 3584 1784 3584  Q 2172 3584 2450 3431  Q 2728 3278 2906 2969  L 2906 3500  L 3481 3500  L 3481 434  z "
                   transform="scale(0.015625)" />
                <path
                   id="DejaVuSans-42"
                   d="M 1259 2228  L 1259 519  L 2272 519  Q 2781 519 3026 730  Q 3272 941 3272 1375  Q 3272 1813 3026 2020  Q 2781 2228 2272 2228  L 1259 2228  z M 1259 4147  L 1259 2741  L 2194 2741  Q 2656 2741 2882 2914  Q 3109 3088 3109 3444  Q 3109 3797 2882 3972  Q 2656 4147 2194 4147  L 1259 4147  z M 628 4666  L 2241 4666  Q 2963 4666 3353 4366  Q 3744 4066 3744 3513  Q 3744 3084 3544 2831  Q 3344 2578 2956 2516  Q 3422 2416 3680 2098  Q 3938 1781 3938 1306  Q 3938 681 3513 340  Q 3088 0 2303 0  L 628 0  L 628 4666  z "
                   transform="scale(0.015625)" />
                <path
                   id="DejaVuSans-70"
                   d="M 1159 525  L 1159 -1331  L 581 -1331  L 581 3500  L 1159 3500  L 1159 2969  Q 1341 3281 1617 3432  Q 1894 3584 2278 3584  Q 2916 3584 3314 3078  Q 3713 2572 3713 1747  Q 3713 922 3314 415  Q 2916 -91 2278 -91  Q 1894 -91 1617 61  Q 1341 213 1159 525  z M 3116 1747  Q 3116 2381 2855 2742  Q 2594 3103 2138 3103  Q 1681 3103 1420 2742  Q 1159 2381 1159 1747  Q 1159 1113 1420 752  Q 1681 391 2138 391  Q 2594 391 2855 752  Q 3116 1113 3116 1747  z "
                   transform="scale(0.015625)" />
              </defs>
              <use
                 xlink:href="#DejaVuSans-43"
                 id="use77" />
              <use
                 xlink:href="#DejaVuSans-72"
                 x="69.824219"
                 id="use78" />
              <use
                 xlink:href="#DejaVuSans-61"
                 x="110.9375"
                 id="use79" />
              <use
                 xlink:href="#DejaVuSans-69"
                 x="172.216797"
                 id="use80" />
              <use
                 xlink:href="#DejaVuSans-67"
                 x="200"
                 id="use81" />
              <use
                 xlink:href="#DejaVuSans-2d"
                 x="263.476562"
                 id="use82" />
              <use
                 xlink:href="#DejaVuSans-42"
                 x="295.935547"
                 id="use83" />
              <use
                 xlink:href="#DejaVuSans-61"
                 x="364.539062"
                 id="use84" />
              <use
                 xlink:href="#DejaVuSans-6d"
                 x="425.818359"
                 id="use85" />
              <use
                 xlink:href="#DejaVuSans-70"
                 x="523.230469"
                 id="use86" />
              <use
                 xlink:href="#DejaVuSans-74"
                 x="586.707031"
                 id="use87" />
              <use
                 xlink:href="#DejaVuSans-6f"
                 x="625.916016"
                 id="use88" />
              <use
                 xlink:href="#DejaVuSans-6e"
                 x="687.097656"
                 id="use89" />
            </g>
          </g>
        </g>
      </g>
      <g
         id="matplotlib.axis_4">
        <g
           id="ytick_7">
          <g
             id="line2d_11">
            <g
               id="g90">
              <use
                 xlink:href="#mcc67565311"
                 x="104.85875"
                 y="591.6725"
                 style="stroke: #000000; stroke-width: 2"
                 id="use90" />
            </g>
          </g>
          <g
             id="text_12">
            <!-- 0.10 -->
            <g
               transform="translate(48.8275 599.270938) scale(0.2 -0.2)"
               id="g94">
              <use
                 xlink:href="#DejaVuSans-30"
                 id="use91" />
              <use
                 xlink:href="#DejaVuSans-2e"
                 x="63.623047"
                 id="use92" />
              <use
                 xlink:href="#DejaVuSans-31"
                 x="95.410156"
                 id="use93" />
              <use
                 xlink:href="#DejaVuSans-30"
                 x="159.033203"
                 id="use94" />
            </g>
          </g>
        </g>
        <g
           id="ytick_8">
          <g
             id="line2d_12">
            <g
               id="g95">
              <use
                 xlink:href="#mcc67565311"
                 x="104.85875"
                 y="521.426067"
                 style="stroke: #000000; stroke-width: 2"
                 id="use95" />
            </g>
          </g>
          <g
             id="text_13">
            <!-- 0.12 -->
            <g
               transform="translate(48.8275 529.024504) scale(0.2 -0.2)"
               id="g99">
              <use
                 xlink:href="#DejaVuSans-30"
                 id="use96" />
              <use
                 xlink:href="#DejaVuSans-2e"
                 x="63.623047"
                 id="use97" />
              <use
                 xlink:href="#DejaVuSans-31"
                 x="95.410156"
                 id="use98" />
              <use
                 xlink:href="#DejaVuSans-32"
                 x="159.033203"
                 id="use99" />
            </g>
          </g>
        </g>
        <g
           id="ytick_9">
          <g
             id="line2d_13">
            <g
               id="g100">
              <use
                 xlink:href="#mcc67565311"
                 x="104.85875"
                 y="451.179633"
                 style="stroke: #000000; stroke-width: 2"
                 id="use100" />
            </g>
          </g>
          <g
             id="text_14">
            <!-- 0.14 -->
            <g
               transform="translate(48.8275 458.778071) scale(0.2 -0.2)"
               id="g104">
              <use
                 xlink:href="#DejaVuSans-30"
                 id="use101" />
              <use
                 xlink:href="#DejaVuSans-2e"
                 x="63.623047"
                 id="use102" />
              <use
                 xlink:href="#DejaVuSans-31"
                 x="95.410156"
                 id="use103" />
              <use
                 xlink:href="#DejaVuSans-34"
                 x="159.033203"
                 id="use104" />
            </g>
          </g>
        </g>
      </g>
      <g
         id="line2d_14">
        <path
           d="M 93.795631 418.690658  L 115.921869 413.422175  "
           style="fill: none; stroke: #000000; stroke-width: 3.5; stroke-linecap: square"
           id="path104" />
      </g>
      <g
         id="patch_11">
        <path
           d="M 104.85875 591.6725  L 104.85875 416.056417  "
           style="fill: none; stroke: #000000; stroke-width: 2; stroke-linejoin: miter; stroke-linecap: square"
           id="path105" />
      </g>
      <g
         id="patch_12">
        <path
           d="M 104.85875 591.6725  L 842.4 591.6725  "
           style="fill: none; stroke: #000000; stroke-width: 2; stroke-linejoin: miter; stroke-linecap: square"
           id="path106" />
      </g>
      <g
         id="text_15"
         transform="matrix(1.5864491,0,0,1.5864491,-271.49363,-278.68254)">
        <!-- 0.13 -->
        <g
           transform="matrix(0.2,0,0,-0.2,448.83759,479.19629)"
           id="g109">
          <use
             xlink:href="#DejaVuSans-30"
             id="use106" />
          <use
             xlink:href="#DejaVuSans-2e"
             x="63.623047"
             id="use107" />
          <use
             xlink:href="#DejaVuSans-31"
             x="95.410156"
             id="use108" />
          <use
             xlink:href="#DejaVuSans-33"
             x="159.0332"
             id="use109" />
        </g>
      </g>
      <g
         id="text_16"
         transform="matrix(1.5864491,0,0,1.5864491,-417.7819,-262.2473)">
        <!-- 0.14 -->
        <g
           transform="matrix(0.2,0,0,-0.2,690.82519,447.02026)"
           id="g113">
          <use
             xlink:href="#DejaVuSans-30"
             id="use110" />
          <use
             xlink:href="#DejaVuSans-2e"
             x="63.623047"
             id="use111" />
          <use
             xlink:href="#DejaVuSans-31"
             x="95.410156"
             id="use112" />
          <use
             xlink:href="#DejaVuSans-34"
             x="159.0332"
             id="use113" />
        </g>
      </g>
    </g>
  </g>
  <defs
     id="defs114">
    <clipPath
       id="pe450923bdd">
      <rect
         x="104.85875"
         y="29.198437"
         width="737.54125"
         height="351.232167"
         id="rect113" />
    </clipPath>
    <clipPath
       id="pbb3622efc0">
      <rect
         x="104.85875"
         y="416.056417"
         width="737.54125"
         height="175.616083"
         id="rect114" />
    </clipPath>
  </defs>
</svg>
